{"glyphs":{":":{"x_min":0,"x_max":229,"ha":229,"o":"m 45 -1 q 30 -1 24 13 q 18 29 21 49 l 41 117 q 46 132 59 138 q 71 146 93 148 l 183 148 q 201 146 211 135 q 218 125 211 99 l 199 47 q 190 20 175 8 q 156 -1 133 -1 z m 123 286 q 107 286 101 301 q 94 315 100 336 l 118 404 q 125 422 136 428 q 148 435 169 435 l 263 435 q 277 435 286 424 q 295 413 288 387 l 276 336 q 271 307 251 297 q 233 286 211 286 z"},"?":{"x_min":0,"x_max":477,"ha":477,"o":"m 187 0 q 172 0 163 10 q 152 20 156 43 l 171 111 q 174 119 187 131 q 196 143 224 142 l 301 142 q 329 143 334 128 q 337 113 332 93 l 318 40 q 313 13 301 7 q 287 0 266 0 z m 525 391 q 512 341 495 320 q 477 295 437 295 l 406 295 q 391 295 385 287 q 378 277 370 251 q 365 236 352 226 q 338 216 326 214 l 248 214 q 224 214 215 227 q 203 238 209 267 l 241 401 q 245 416 259 427 q 273 436 287 436 l 362 437 l 398 589 l 332 589 l 314 517 l 142 517 l 172 639 q 187 687 208 709 q 229 730 287 730 l 534 730 q 560 730 577 702 q 596 674 589 646 z"},"<":{"x_min":0,"x_max":386,"ha":386,"o":"m 336 0 l 88 294 l 127 437 l 530 730 l 471 538 l 242 365 l 386 194 z"},"'":{"x_min":0,"x_max":227,"ha":227,"o":"m 237 512 q 185 477 164 486 q 146 496 154 538 l 194 698 q 201 716 213 722 q 227 730 249 730 l 342 730 q 359 730 368 716 q 378 706 369 679 l 348 599 q 343 582 336 573 q 328 567 307 556 z"},"=":{"x_min":0,"x_max":331,"ha":331,"o":"m 168 439 q 153 438 141 454 q 130 473 134 487 l 148 547 q 152 562 164 571 q 178 583 193 583 l 385 583 q 399 583 410 567 q 424 553 421 540 l 409 492 q 405 473 389 456 q 376 438 359 439 z m 97 150 q 81 148 70 165 q 60 183 62 198 l 77 258 q 79 271 92 281 q 106 292 122 294 l 313 294 q 326 292 339 276 q 351 263 350 250 l 337 202 q 331 185 317 165 q 303 148 288 150 z"},"a":{"x_min":0,"x_max":479,"ha":479,"o":"m 305 438 l 350 438 l 386 584 l 337 584 z m 8 0 l 170 632 q 185 679 206 706 q 226 731 289 731 l 483 731 q 521 731 542 726 q 564 720 575 706 q 584 688 583 658 q 580 630 567 584 l 421 -1 l 236 -1 l 313 291 l 263 291 l 190 -1 z"},"L":{"x_min":0,"x_max":405,"ha":405,"o":"m 9 0 l 192 732 l 381 732 l 230 146 l 395 146 l 358 0 z"},"3":{"x_min":0,"x_max":501,"ha":501,"o":"m 601 626 l 562 463 q 554 423 511 397 q 467 372 420 363 q 479 362 501 337 q 523 313 511 263 l 467 84 q 458 40 430 20 q 403 0 367 0 l 103 0 q 53 0 44 36 q 35 72 44 113 l 71 222 l 245 222 l 222 140 l 319 140 l 347 246 q 354 273 326 285 q 297 293 259 293 l 296 435 q 342 435 375 455 q 408 476 417 516 l 435 587 l 333 587 l 315 516 l 141 516 l 168 619 q 175 642 180 662 q 185 682 198 697 q 209 711 233 722 q 253 730 293 729 l 532 729 q 580 730 596 705 q 612 677 601 626 z"},";":{"x_min":0,"x_max":232,"ha":232,"o":"m 87 -36 q 37 -67 20 -59 q 2 -50 8 -13 l 49 129 q 53 145 65 151 q 77 157 97 159 l 186 159 q 199 157 207 145 q 218 136 211 111 l 190 41 q 186 26 177 18 q 169 13 153 3 z m 127 292 q 111 292 106 307 q 99 321 106 341 l 123 408 q 127 425 139 430 q 151 437 173 437 l 261 437 q 274 437 282 426 q 293 416 287 391 l 274 341 q 267 313 248 303 q 233 292 211 292 z"},"J":{"x_min":0,"x_max":475,"ha":475,"o":"m 276 145 l 421 730 l 602 730 l 440 93 q 432 59 425 39 q 416 20 406 11 q 396 1 384 0 q 368 -2 350 0 l 110 0 q 91 -2 74 0 q 56 1 46 11 q 35 21 32 42 q 30 62 39 102 l 86 292 l 264 292 l 228 145 z"},"V":{"x_min":0,"x_max":479,"ha":479,"o":"m 604 730 l 421 0 l 67 0 l 205 730 l 376 730 l 285 143 l 423 730 z"},"\"":{"x_min":0,"x_max":445,"ha":445,"o":"m 237 512 q 185 477 164 486 q 146 496 154 538 l 194 698 q 201 716 213 722 q 227 730 249 730 l 342 730 q 359 730 368 716 q 378 706 369 679 l 348 599 q 343 582 336 573 q 328 567 307 556 z m 436 512 q 384 477 363 486 q 345 496 353 538 l 394 698 q 400 716 413 722 q 426 730 448 730 l 541 730 q 558 730 567 716 q 577 706 568 679 l 547 599 q 542 582 535 573 q 527 567 506 556 z"},"7":{"x_min":0,"x_max":412,"ha":412,"o":"m 543 729 l 511 588 l 216 0 l 28 0 l 341 588 q 341 589 311 591 q 282 589 248 591 q 214 589 185 591 q 157 589 157 588 l 191 729 z"},"S":{"x_min":0,"x_max":479,"ha":479,"o":"m 167 621 q 178 674 203 704 q 225 730 285 729 l 496 729 q 535 730 557 722 q 575 712 582 696 q 588 682 586 665 q 582 645 578 629 l 551 512 l 375 512 l 393 585 l 330 585 l 296 438 l 533 438 l 452 100 q 439 47 418 23 q 393 0 335 0 l 127 0 q 81 0 56 32 q 33 60 41 107 l 69 219 l 243 219 l 225 146 l 289 146 l 323 292 l 86 292 z"},"}":{"x_min":0,"x_max":301,"ha":301,"o":"m 48 150 l 81 150 q 97 150 104 161 q 108 167 110 178 l 145 317 q 150 334 167 346 q 184 354 208 354 q 184 354 173 369 q 163 380 167 393 l 210 562 q 214 579 210 584 q 206 588 200 587 l 165 587 l 203 729 l 349 729 q 366 729 377 718 q 385 706 381 687 l 311 426 q 305 403 330 380 q 350 354 381 354 q 350 354 318 334 q 283 314 273 283 l 210 49 q 206 31 187 17 q 165 0 136 -1 l 12 -1 z"},"Z":{"x_min":0,"x_max":479,"ha":479,"o":"m 592 730 l 559 584 l 254 145 l 461 145 l 424 0 l 20 0 l 53 145 l 357 584 l 151 584 l 184 729 z"},"x":{"x_min":0,"x_max":525,"ha":525,"o":"m 10 0 l 185 366 l 182 730 l 358 730 l 364 512 l 478 730 l 647 730 l 458 366 l 475 0 l 296 0 l 296 219 l 178 0 z"},")":{"x_min":0,"x_max":237,"ha":237,"o":"m 50 151 l 82 151 q 96 150 102 159 q 109 167 112 179 l 210 561 q 213 575 209 581 q 206 586 200 588 l 167 588 l 203 729 l 348 729 q 366 729 374 715 q 385 705 380 688 l 210 49 q 204 30 184 13 q 164 -1 136 -1 l 13 -1 z"},"v":{"x_min":0,"x_max":479,"ha":479,"o":"m 604 730 l 421 0 l 67 0 l 205 730 l 376 730 l 285 143 l 423 730 z"},"O":{"x_min":0,"x_max":479,"ha":479,"o":"m 345 584 l 235 145 l 280 145 l 392 584 z m 107 -1 q 63 -2 45 25 q 25 52 35 91 l 171 622 q 183 666 210 697 q 238 729 286 730 l 495 730 q 540 729 566 697 q 593 665 579 613 l 453 111 q 439 55 413 25 q 389 -2 335 -1 z"},"(":{"x_min":0,"x_max":239,"ha":239,"o":"m 203 -1 l 69 -1 q 50 -1 33 19 q 22 42 26 60 l 192 683 q 201 715 213 721 q 229 729 250 729 l 398 729 l 360 588 l 319 588 q 309 587 303 585 q 299 583 296 574 l 192 173 q 191 165 196 157 q 203 151 211 153 l 243 156 z"},"C":{"x_min":0,"x_max":479,"ha":479,"o":"m 34 88 l 172 643 q 179 667 187 683 q 192 700 204 710 q 215 722 237 725 q 256 729 291 730 l 478 730 q 547 730 572 700 q 596 671 580 607 l 538 438 l 358 438 l 392 584 l 343 584 l 231 143 l 279 143 l 319 291 l 500 291 l 446 87 q 434 37 414 17 q 393 -2 343 0 l 129 0 q 93 -2 73 0 q 48 2 39 11 q 28 21 28 39 q 27 57 34 88 z"},"W":{"x_min":0,"x_max":716,"ha":716,"o":"m 603 730 l 460 146 l 521 146 l 667 730 l 841 730 l 661 0 l 146 0 q 85 0 60 29 q 34 59 52 145 l 196 730 l 367 730 l 228 146 l 289 146 l 425 730 z"},"A":{"x_min":0,"x_max":479,"ha":479,"o":"m 305 438 l 350 438 l 386 584 l 337 584 z m 8 0 l 170 632 q 185 679 206 706 q 226 731 289 731 l 483 731 q 521 731 542 726 q 564 720 575 706 q 584 688 583 658 q 580 630 567 584 l 421 -1 l 236 -1 l 313 291 l 263 291 l 190 -1 z"},"f":{"x_min":0,"x_max":403,"ha":403,"o":"m 4 -1 l 191 729 l 546 729 l 502 584 l 337 584 l 299 437 l 468 437 l 429 290 l 260 290 l 187 -1 z"},"Q":{"x_min":0,"x_max":546,"ha":546,"o":"m 344 584 l 231 145 l 280 144 l 389 584 z m 102 -1 q 62 -2 46 26 q 30 57 39 89 l 167 622 q 179 667 203 697 q 227 729 262 730 l 508 730 q 557 726 574 693 q 592 662 578 608 l 473 192 q 468 175 470 160 q 473 144 493 144 l 541 144 l 502 -1 l 433 -1 q 421 -2 412 3 q 403 9 406 31 q 400 14 387 5 q 375 -2 355 -1 z"},"w":{"x_min":0,"x_max":716,"ha":716,"o":"m 603 730 l 460 146 l 521 146 l 667 730 l 841 730 l 661 0 l 146 0 q 85 0 60 29 q 34 59 52 145 l 196 730 l 367 730 l 228 146 l 289 146 l 425 730 z"},"-":{"x_min":0,"x_max":372,"ha":372,"o":"m 134 293 q 118 293 105 310 q 95 327 98 341 l 112 400 q 115 413 130 423 q 145 434 161 435 l 358 435 q 373 434 386 420 q 399 406 396 393 l 385 346 q 380 327 364 310 q 350 293 332 293 z"},"E":{"x_min":0,"x_max":403,"ha":403,"o":"m 5 -1 l 192 731 l 546 731 l 504 585 l 336 585 l 301 439 l 467 439 l 431 292 l 263 292 l 224 145 l 394 145 l 358 -1 z"},"s":{"x_min":0,"x_max":479,"ha":479,"o":"m 167 621 q 178 674 203 704 q 225 730 285 729 l 496 729 q 535 730 557 722 q 575 712 582 696 q 588 682 586 665 q 582 645 578 629 l 551 512 l 375 512 l 393 585 l 330 585 l 296 438 l 533 438 l 452 100 q 439 47 418 23 q 393 0 335 0 l 127 0 q 81 0 56 32 q 33 60 41 107 l 69 219 l 243 219 l 225 146 l 289 146 l 323 292 l 86 292 z"},">":{"x_min":0,"x_max":402,"ha":402,"o":"m 208 730 l 437 437 l 407 294 l 13 0 l 62 182 l 315 367 l 159 545 z"},"l":{"x_min":0,"x_max":405,"ha":405,"o":"m 9 0 l 192 732 l 381 732 l 230 146 l 395 146 l 358 0 z"},"8":{"x_min":0,"x_max":533,"ha":533,"o":"m 633 647 l 587 453 q 573 400 546 383 q 520 365 465 363 q 522 362 536 333 q 550 306 540 260 l 503 90 q 495 53 458 27 q 423 0 390 0 l 98 0 q 65 0 43 29 q 21 58 31 95 l 84 299 q 92 333 118 349 q 145 365 188 363 q 160 365 143 373 q 128 380 121 392 q 113 404 113 419 q 114 433 118 446 l 161 632 q 169 666 192 699 q 215 730 273 729 l 567 729 q 613 730 627 709 q 644 686 633 647 z m 249 280 l 215 140 l 346 140 l 380 280 z m 292 453 l 424 453 l 454 587 l 327 587 z"},"\\":{"x_min":0,"x_max":377,"ha":377,"o":"m 194 0 q 170 0 158 10 q 145 21 146 62 l 186 689 q 187 707 205 720 q 218 730 238 730 l 308 730 q 334 730 343 715 q 353 699 349 665 l 314 65 q 312 21 301 12 q 290 0 266 0 z"},"e":{"x_min":0,"x_max":403,"ha":403,"o":"m 5 -1 l 192 731 l 546 731 l 504 585 l 336 585 l 301 439 l 467 439 l 431 292 l 263 292 l 224 145 l 394 145 l 358 -1 z"},"b":{"x_min":0,"x_max":479,"ha":479,"o":"m 263 291 l 225 145 l 277 145 l 316 291 z m 337 584 l 300 438 l 351 438 l 390 584 z m 4 0 l 191 731 l 499 731 q 551 731 573 696 q 596 662 581 604 l 541 453 q 530 413 490 390 q 446 370 411 364 q 424 360 443 353 q 458 348 473 337 q 485 325 494 307 q 500 290 491 262 l 450 105 q 441 73 434 52 q 425 32 411 21 q 397 7 373 3 q 349 -2 312 0 z"},"m":{"x_min":0,"x_max":714,"ha":714,"o":"m 245 -1 l 390 583 l 329 583 l 185 -1 l 9 -1 l 188 729 l 704 729 q 768 728 795 698 q 819 668 799 583 l 661 -1 l 484 -1 l 629 583 l 563 583 l 420 -1 z"},"#":{"x_min":0,"x_max":477,"ha":477,"o":"m 57 0 l 91 147 l 48 147 l 86 287 l 124 287 l 158 430 l 120 430 l 158 586 l 200 586 l 235 730 l 374 730 l 340 586 l 384 586 l 422 730 l 569 730 l 534 586 l 565 586 l 527 430 l 492 430 l 458 287 l 492 287 l 460 147 l 426 147 l 387 0 l 244 0 l 280 147 l 229 147 l 193 0 z m 263 287 l 314 287 l 349 430 l 298 430 z"},",":{"x_min":0,"x_max":230,"ha":230,"o":"m 81 -66 q 29 -101 7 -92 q -11 -83 -2 -41 l 38 120 q 44 138 57 144 q 70 152 92 152 l 186 152 q 203 152 211 138 q 222 128 213 101 l 191 21 q 187 4 180 -5 q 171 -11 151 -22 z"},"n":{"x_min":0,"x_max":479,"ha":479,"o":"m 9 -1 l 191 730 l 479 730 q 555 729 570 695 q 588 661 571 592 l 419 -1 l 236 -1 l 384 585 l 338 585 l 188 -1 z"},"h":{"x_min":0,"x_max":477,"ha":477,"o":"m 8 -1 l 195 729 l 374 729 l 300 437 l 350 437 l 422 729 l 601 729 l 419 -1 l 241 -1 l 312 291 l 268 291 l 192 -1 z"},"z":{"x_min":0,"x_max":479,"ha":479,"o":"m 592 730 l 559 584 l 254 145 l 461 145 l 424 0 l 20 0 l 53 145 l 357 584 l 151 584 l 184 729 z"},"B":{"x_min":0,"x_max":479,"ha":479,"o":"m 263 291 l 225 145 l 277 145 l 316 291 z m 337 584 l 300 438 l 351 438 l 390 584 z m 4 0 l 191 731 l 499 731 q 551 731 573 696 q 596 662 581 604 l 541 453 q 530 413 490 390 q 446 370 411 364 q 424 360 443 353 q 458 348 473 337 q 485 325 494 307 q 500 290 491 262 l 450 105 q 441 73 434 52 q 425 32 411 21 q 397 7 373 3 q 349 -2 312 0 z"},"K":{"x_min":0,"x_max":477,"ha":477,"o":"m 12 0 l 190 728 l 372 728 l 321 535 l 433 728 l 612 728 l 402 364 l 431 0 l 250 0 l 243 207 l 192 0 z"},"R":{"x_min":0,"x_max":495,"ha":495,"o":"m 341 583 l 301 438 l 351 438 l 386 583 z m 13 -1 l 195 730 l 471 730 q 524 729 550 708 q 579 685 583 629 l 516 382 q 510 358 495 341 q 482 327 467 316 q 451 307 437 299 q 422 295 413 291 l 461 -1 l 284 -1 l 250 229 l 195 -1 z"},"T":{"x_min":0,"x_max":432,"ha":432,"o":"m 285 0 l 108 0 l 251 586 l 166 586 l 200 730 l 556 730 l 520 586 l 429 586 z"},"P":{"x_min":0,"x_max":479,"ha":479,"o":"m 337 586 l 304 439 l 353 439 l 386 586 z m 17 0 l 198 732 l 483 732 q 530 731 559 704 q 590 678 578 631 l 521 389 q 506 329 474 310 q 444 292 397 293 l 265 293 l 195 0 z"},"|":{"x_min":0,"x_max":228,"ha":228,"o":"m -12 -75 l 225 805 l 403 805 l 160 -75 z"},"t":{"x_min":0,"x_max":432,"ha":432,"o":"m 285 0 l 108 0 l 251 586 l 166 586 l 200 730 l 556 730 l 520 586 l 429 586 z"},"M":{"x_min":0,"x_max":714,"ha":714,"o":"m 245 -1 l 390 583 l 329 583 l 185 -1 l 9 -1 l 188 729 l 704 729 q 768 728 795 698 q 819 668 799 583 l 661 -1 l 484 -1 l 629 583 l 563 583 l 420 -1 z"},"g":{"x_min":0,"x_max":518,"ha":518,"o":"m 42 127 l 173 644 q 186 694 209 711 q 233 728 291 728 l 516 728 q 571 728 602 703 q 633 677 620 613 l 595 494 l 419 494 l 441 583 l 341 583 l 232 144 l 328 144 l 347 211 l 288 211 l 330 364 l 558 364 l 490 91 q 480 57 468 38 q 457 20 441 11 q 425 2 405 0 q 385 -2 358 0 l 130 0 q 50 -2 37 33 q 26 67 42 127 z"},"j":{"x_min":0,"x_max":475,"ha":475,"o":"m 276 145 l 421 730 l 602 730 l 440 93 q 432 59 425 39 q 416 20 406 11 q 396 1 384 0 q 368 -2 350 0 l 110 0 q 91 -2 74 0 q 56 1 46 11 q 35 21 32 42 q 30 62 39 102 l 86 292 l 264 292 l 228 145 z"},"i":{"x_min":0,"x_max":240,"ha":240,"o":"m 11 -1 l 194 730 l 377 730 l 192 -1 z"},"y":{"x_min":0,"x_max":482,"ha":482,"o":"m 597 730 l 447 87 q 445 77 439 63 q 436 47 424 33 q 416 19 399 10 q 384 0 357 0 l 125 0 q 78 0 53 29 q 30 58 39 95 l 68 219 l 243 219 l 232 182 q 227 167 231 157 q 237 146 262 146 q 278 146 287 154 q 294 162 301 188 l 321 292 l 194 292 q 158 293 138 303 q 122 313 115 332 q 109 350 111 377 q 117 403 125 436 l 192 730 l 363 730 l 293 439 l 357 439 l 428 730 z"},"@":{"x_min":0,"x_max":625,"ha":625,"o":"m 480 286 q 478 277 484 282 q 494 282 503 291 q 515 298 523 310 q 534 319 537 327 l 586 539 q 589 553 572 571 q 558 585 545 585 l 294 585 q 280 585 265 572 q 251 559 249 544 l 175 225 q 173 218 175 207 q 180 192 188 179 q 193 166 200 157 q 210 147 220 147 l 609 148 l 578 0 l 133 0 q 121 0 106 19 q 90 37 76 61 q 63 87 56 116 q 49 144 54 166 l 153 601 q 157 622 173 645 q 190 667 213 687 q 235 706 261 719 q 287 730 311 730 l 601 730 q 619 730 639 717 q 661 700 677 678 q 695 655 703 630 q 713 603 709 579 l 650 315 q 646 298 635 280 q 625 260 607 243 q 592 227 570 216 q 549 205 526 204 l 324 204 q 302 204 286 219 q 273 232 265 254 q 256 276 255 305 q 256 331 263 357 q 267 385 281 414 q 298 441 318 463 q 338 485 362 501 q 387 513 407 513 l 529 513 z m 377 286 l 425 286 l 458 430 l 425 430 q 401 430 375 407 q 350 382 346 357 q 342 337 350 313 q 359 286 377 286 z"},".":{"x_min":0,"x_max":227,"ha":227,"o":"m 46 0 q 31 0 23 13 q 13 27 18 52 l 35 122 q 37 131 52 140 q 67 151 89 151 l 181 151 q 199 151 208 137 q 217 125 211 102 l 197 49 q 191 18 173 7 q 155 0 133 0 z"},"p":{"x_min":0,"x_max":479,"ha":479,"o":"m 337 586 l 304 439 l 353 439 l 386 586 z m 17 0 l 198 732 l 483 732 q 530 731 559 704 q 590 678 578 631 l 521 389 q 506 329 474 310 q 444 292 397 293 l 265 293 l 195 0 z"},"X":{"x_min":0,"x_max":525,"ha":525,"o":"m 10 0 l 185 366 l 182 730 l 358 730 l 364 512 l 478 730 l 647 730 l 458 366 l 475 0 l 296 0 l 296 219 l 178 0 z"},"*":{"x_min":0,"x_max":378,"ha":378,"o":"m 341 461 l 396 479 q 406 480 412 480 q 418 480 419 473 l 426 401 q 426 390 417 383 q 412 378 399 375 l 328 356 l 383 314 q 392 307 396 299 q 399 292 396 286 l 374 242 q 366 228 358 226 q 352 223 336 237 l 298 269 l 277 192 q 275 179 260 161 q 245 146 232 147 l 179 147 q 164 146 157 167 q 152 189 155 202 l 165 254 l 121 236 q 106 230 102 234 q 100 241 100 246 l 89 286 q 89 297 90 307 q 97 317 114 326 l 177 356 l 125 388 q 109 394 108 404 q 108 417 114 427 l 141 480 q 145 486 155 485 q 165 486 174 483 l 217 461 l 236 537 q 237 547 249 561 q 265 575 278 576 l 334 576 q 347 575 354 558 q 361 542 358 532 z"},"Y":{"x_min":0,"x_max":482,"ha":482,"o":"m 597 730 l 447 87 q 445 77 439 63 q 436 47 424 33 q 416 19 399 10 q 384 0 357 0 l 125 0 q 78 0 53 29 q 30 58 39 95 l 68 219 l 243 219 l 232 182 q 227 167 231 157 q 237 146 262 146 q 278 146 287 154 q 294 162 301 188 l 321 292 l 194 292 q 158 293 138 303 q 122 313 115 332 q 109 350 111 377 q 117 403 125 436 l 192 730 l 363 730 l 293 439 l 357 439 l 428 730 z"},"c":{"x_min":0,"x_max":479,"ha":479,"o":"m 34 88 l 172 643 q 179 667 187 683 q 192 700 204 710 q 215 722 237 725 q 256 729 291 730 l 478 730 q 547 730 572 700 q 596 671 580 607 l 538 438 l 358 438 l 392 584 l 343 584 l 231 143 l 279 143 l 319 291 l 500 291 l 446 87 q 434 37 414 17 q 393 -2 343 0 l 129 0 q 93 -2 73 0 q 48 2 39 11 q 28 21 28 39 q 27 57 34 88 z"},"!":{"x_min":0,"x_max":231,"ha":231,"o":"m 103 214 q 82 213 78 230 q 71 247 76 271 l 184 678 q 190 698 214 712 q 236 729 264 730 l 328 730 q 348 729 363 716 q 375 705 367 681 l 259 278 q 251 251 235 231 q 215 213 188 214 z m 46 0 q 31 0 23 13 q 13 27 18 52 l 35 122 q 37 131 52 140 q 67 151 89 151 l 181 151 q 199 151 208 137 q 217 125 211 102 l 197 49 q 191 18 173 7 q 155 0 133 0 z"},"/":{"x_min":0,"x_max":284,"ha":284,"o":"m 51 -1 q 30 -1 21 7 q 16 19 30 62 l 272 689 q 279 705 298 715 q 318 729 337 729 l 395 729 q 417 729 420 708 q 425 691 416 664 l 177 64 q 161 26 145 10 q 130 -1 108 -1 z"},"[":{"x_min":0,"x_max":243,"ha":243,"o":"m 198 -1 l 9 -1 l 200 729 l 391 729 l 354 588 l 294 588 l 185 151 l 239 156 z"},"6":{"x_min":0,"x_max":511,"ha":511,"o":"m 604 626 l 582 516 l 423 516 l 440 587 l 339 587 l 301 436 l 441 436 q 502 433 526 407 q 550 382 541 333 l 478 84 q 468 43 437 21 q 408 0 375 0 l 106 0 q 71 0 52 38 q 34 73 44 112 l 168 619 q 171 636 180 657 q 188 677 203 693 q 217 709 237 720 q 258 730 286 729 l 550 729 q 599 730 604 700 q 612 667 604 626 z m 265 293 l 229 140 l 325 140 l 363 293 z"},"r":{"x_min":0,"x_max":495,"ha":495,"o":"m 341 583 l 301 438 l 351 438 l 386 583 z m 13 -1 l 195 730 l 471 730 q 524 729 550 708 q 579 685 583 629 l 516 382 q 510 358 495 341 q 482 327 467 316 q 451 307 437 299 q 422 295 413 291 l 461 -1 l 284 -1 l 250 229 l 195 -1 z"},"2":{"x_min":0,"x_max":488,"ha":488,"o":"m 593 632 l 556 475 l 219 140 l 472 140 l 436 0 l 13 0 l 54 189 l 395 516 l 415 587 l 335 587 l 318 516 l 143 516 l 168 636 q 172 652 178 669 q 183 686 195 699 q 208 713 233 723 q 255 730 296 729 l 518 729 q 579 730 592 708 q 606 682 593 632 z"},"{":{"x_min":0,"x_max":299,"ha":299,"o":"m 265 -1 l 134 -1 q 117 0 104 22 q 90 43 93 59 l 153 285 q 159 308 138 332 q 117 354 79 354 q 117 354 148 376 q 180 393 188 423 l 254 683 q 263 714 278 721 q 292 729 311 729 l 454 729 l 417 587 l 377 587 q 368 588 363 587 q 357 583 355 574 l 309 387 q 308 375 293 364 q 278 354 263 354 q 276 354 285 343 q 295 328 292 319 l 254 172 q 253 166 262 161 q 268 152 273 152 l 303 155 z"},"9":{"x_min":0,"x_max":509,"ha":509,"o":"m 37 99 l 62 222 l 239 222 l 222 140 l 321 140 l 358 293 l 194 293 q 134 296 116 325 q 100 352 112 397 l 173 647 q 181 689 215 711 q 248 730 282 729 l 538 729 q 570 730 594 700 q 621 669 610 629 l 479 110 q 474 95 466 76 q 457 55 442 39 q 430 21 408 12 q 389 0 361 0 l 97 0 q 48 0 37 29 q 28 56 37 99 z m 395 435 l 435 587 l 334 587 l 294 435 z"}," ":{"x_min":0,"x_max":309,"ha":309,"o":""},"I":{"x_min":0,"x_max":240,"ha":240,"o":"m 11 -1 l 194 730 l 377 730 l 192 -1 z"},"H":{"x_min":0,"x_max":477,"ha":477,"o":"m 8 -1 l 195 729 l 374 729 l 300 437 l 350 437 l 422 729 l 601 729 l 419 -1 l 241 -1 l 312 291 l 268 291 l 192 -1 z"},"4":{"x_min":0,"x_max":516,"ha":516,"o":"m 509 140 l 432 140 l 400 -1 l 246 -1 l 278 140 l 51 140 l 87 293 l 423 730 l 575 730 l 469 293 l 545 293 z m 271 293 l 317 293 l 344 401 z"},"D":{"x_min":0,"x_max":479,"ha":479,"o":"m 339 583 l 225 143 l 275 143 l 388 583 z m 322 -1 l 7 -1 l 193 730 l 508 730 q 545 730 566 720 q 584 711 589 695 q 596 681 593 660 q 590 643 583 621 l 449 89 q 436 35 398 15 q 359 -2 322 -1 z"},"0":{"x_min":0,"x_max":503,"ha":503,"o":"m 173 642 q 188 697 215 714 q 246 730 291 729 l 537 729 q 569 730 592 700 q 618 669 609 632 l 479 104 q 475 90 466 73 q 458 55 444 39 q 430 21 410 13 q 390 1 363 0 l 109 0 q 64 1 44 26 q 23 50 33 89 z m 288 397 l 418 533 l 438 589 l 338 589 z m 225 140 l 318 140 l 368 323 l 239 203 z"},"F":{"x_min":0,"x_max":403,"ha":403,"o":"m 4 -1 l 191 729 l 546 729 l 502 584 l 337 584 l 299 437 l 468 437 l 429 290 l 260 290 l 187 -1 z"},"`":{"x_min":0,"x_max":229,"ha":229,"o":"m 188 585 q 182 589 179 596 q 175 601 177 610 l 201 700 q 205 716 216 721 q 228 729 249 729 l 335 729 q 350 729 360 716 q 367 705 361 682 l 322 537 q 312 503 296 505 q 275 509 254 528 z"},"k":{"x_min":0,"x_max":477,"ha":477,"o":"m 12 0 l 190 728 l 372 728 l 321 535 l 433 728 l 612 728 l 402 364 l 431 0 l 250 0 l 243 207 l 192 0 z"},"u":{"x_min":0,"x_max":480,"ha":480,"o":"m 607 730 l 422 0 l 142 0 q 66 0 49 35 q 33 69 49 137 l 196 730 l 379 730 l 229 146 l 283 146 l 422 730 z"},"]":{"x_min":0,"x_max":243,"ha":243,"o":"m 47 151 l 104 151 l 217 588 l 162 588 l 200 729 l 386 729 l 197 -1 l 11 -1 z"},"U":{"x_min":0,"x_max":480,"ha":480,"o":"m 607 730 l 422 0 l 142 0 q 66 0 49 35 q 33 69 49 137 l 196 730 l 379 730 l 229 146 l 283 146 l 422 730 z"},"o":{"x_min":0,"x_max":479,"ha":479,"o":"m 345 584 l 235 145 l 280 145 l 392 584 z m 107 -1 q 63 -2 45 25 q 25 52 35 91 l 171 622 q 183 666 210 697 q 238 729 286 730 l 495 730 q 540 729 566 697 q 593 665 579 613 l 453 111 q 439 55 413 25 q 389 -2 335 -1 z"},"N":{"x_min":0,"x_max":479,"ha":479,"o":"m 9 -1 l 191 730 l 479 730 q 555 729 570 695 q 588 661 571 592 l 419 -1 l 236 -1 l 384 585 l 338 585 l 188 -1 z"},"+":{"x_min":0,"x_max":351,"ha":351,"o":"m 139 298 q 125 298 113 314 q 103 331 106 345 l 120 401 q 122 414 136 423 q 148 434 162 436 l 214 436 l 238 543 q 240 556 253 568 q 266 582 281 583 l 336 583 q 347 582 353 565 q 362 552 359 539 l 332 436 l 376 436 q 397 434 408 429 q 419 423 411 395 l 400 349 q 396 333 382 314 q 368 298 352 298 l 303 298 l 277 206 q 272 191 260 174 q 249 160 233 161 l 183 161 q 168 160 159 179 q 155 201 157 215 l 179 298 z"},"G":{"x_min":0,"x_max":518,"ha":518,"o":"m 42 127 l 173 644 q 186 694 209 711 q 233 728 291 728 l 516 728 q 571 728 602 703 q 633 677 620 613 l 595 494 l 419 494 l 441 583 l 341 583 l 232 144 l 328 144 l 347 211 l 288 211 l 330 364 l 558 364 l 490 91 q 480 57 468 38 q 457 20 441 11 q 425 2 405 0 q 385 -2 358 0 l 130 0 q 50 -2 37 33 q 26 67 42 127 z"},"q":{"x_min":0,"x_max":546,"ha":546,"o":"m 344 584 l 231 145 l 280 144 l 389 584 z m 102 -1 q 62 -2 46 26 q 30 57 39 89 l 167 622 q 179 667 203 697 q 227 729 262 730 l 508 730 q 557 726 574 693 q 592 662 578 608 l 473 192 q 468 175 470 160 q 473 144 493 144 l 541 144 l 502 -1 l 433 -1 q 421 -2 412 3 q 403 9 406 31 q 400 14 387 5 q 375 -2 355 -1 z"},"d":{"x_min":0,"x_max":479,"ha":479,"o":"m 339 583 l 225 143 l 275 143 l 388 583 z m 322 -1 l 7 -1 l 193 730 l 508 730 q 545 730 566 720 q 584 711 589 695 q 596 681 593 660 q 590 643 583 621 l 449 89 q 436 35 398 15 q 359 -2 322 -1 z"},"1":{"x_min":0,"x_max":346,"ha":346,"o":"m 99 0 l 234 588 l 163 588 l 270 729 l 428 729 l 257 0 z"},"5":{"x_min":0,"x_max":509,"ha":509,"o":"m 478 465 q 537 462 546 432 q 553 399 540 351 l 472 84 q 462 42 436 21 q 407 0 371 0 l 112 0 q 63 0 48 27 q 34 55 41 95 l 69 222 l 238 222 l 223 141 l 320 141 l 371 331 l 98 331 l 196 729 l 634 729 l 598 588 l 335 588 l 303 465 z"}}}
